<svg xmlns="http://www.w3.org/2000/svg" width="40" height="39" viewBox="0 0 40 39" fill="none"><g clip-path="url(#clip0_3_129)"><path fill-rule="evenodd" clip-rule="evenodd" d="M13.0392 6.3764C13.4292 6.52293 13.6875 6.89589 13.6875 7.3125C13.6875 9.35267 14.7742 11.5498 16.4872 13.2628C18.2002 14.9758 20.3973 16.0625 22.4375 16.0625H23.6563C23.9253 16.0625 24.183 16.1709 24.3712 16.3633C24.5593 16.5557 24.662 16.8157 24.656 17.0847C24.5978 19.7038 25.0665 21.8715 26.1073 23.5611C27.1369 25.2326 28.7842 26.5305 31.272 27.3221L31.285 27.3262L31.285 27.3263C31.3729 27.3556 31.456 27.3854 31.5238 27.4097C31.5365 27.4143 31.5487 27.4186 31.5603 27.4228C31.6391 27.4509 31.6942 27.4699 31.7436 27.4848C31.8294 27.5105 31.8827 27.5187 31.9438 27.5187C32.0255 27.5187 32.107 27.5288 32.1863 27.5486C34.1715 28.0449 35.4886 30.1625 34.9858 32.1738C34.9837 32.1822 34.9815 32.1906 34.9791 32.1989L34.3698 34.3926C34.2495 34.8255 33.8555 35.125 33.4063 35.125H23.5344C21.7818 35.125 20.2131 34.393 18.97 33.288C18.9554 33.275 18.9411 33.2616 18.9273 33.2477L3.44915 17.7696C3.07688 17.3973 3.057 16.8002 3.40368 16.404L11.9349 6.65399C12.2093 6.34046 12.6492 6.22986 13.0392 6.3764ZM5.5249 17.0169L20.32 31.812C21.2659 32.6455 22.3707 33.125 23.5344 33.125H32.6462L33.0482 31.6777C33.2618 30.7956 32.6766 29.7893 31.7898 29.5137C31.3717 29.4866 31.0161 29.356 30.7848 29.271C30.7371 29.2535 30.6947 29.2379 30.6582 29.2256C27.7872 28.3105 25.7197 26.7453 24.4044 24.61C23.2562 22.746 22.7263 20.5212 22.6587 18.0625H22.4375C19.7245 18.0625 17.0467 16.6508 15.073 14.677C13.6609 13.2649 12.5364 11.4924 12.0108 9.60443L5.5249 17.0169Z" fill="black"></path><path fill-rule="evenodd" clip-rule="evenodd" d="M1.01164 18.7929C1.40217 18.4024 2.03533 18.4024 2.42586 18.7929L19.1227 35.4898C19.9057 36.2728 21.112 36.7812 22.3156 36.7812H33.4062C33.9585 36.7812 34.4062 37.229 34.4062 37.7812C34.4062 38.3335 33.9585 38.7812 33.4062 38.7812H22.3156C20.5943 38.7812 18.8755 38.071 17.7085 36.904L1.01164 20.2071C0.621119 19.8166 0.621119 19.1834 1.01164 18.7929Z" fill="black"></path><path fill-rule="evenodd" clip-rule="evenodd" d="M13.2969 18.0625C12.8395 18.0625 12.4688 18.4333 12.4688 18.8906C12.4688 19.348 12.8395 19.7188 13.2969 19.7188C13.7542 19.7188 14.125 19.348 14.125 18.8906C14.125 18.4333 13.7542 18.0625 13.2969 18.0625ZM10.4688 18.8906C10.4688 17.3287 11.7349 16.0625 13.2969 16.0625C14.8588 16.0625 16.125 17.3287 16.125 18.8906C16.125 20.4526 14.8588 21.7188 13.2969 21.7188C11.7349 21.7188 10.4688 20.4526 10.4688 18.8906Z" fill="black"></path><path fill-rule="evenodd" clip-rule="evenodd" d="M17.7812 23.1562C17.7812 22.604 18.229 22.1562 18.7812 22.1562H24.2656C24.8179 22.1562 25.2656 22.604 25.2656 23.1562C25.2656 23.7085 24.8179 24.1562 24.2656 24.1562H18.7812C18.229 24.1562 17.7812 23.7085 17.7812 23.1562Z" fill="black"></path><path fill-rule="evenodd" clip-rule="evenodd" d="M20.2188 26.8125C20.2188 26.2602 20.6665 25.8125 21.2188 25.8125H27.9219C28.4742 25.8125 28.9219 26.2602 28.9219 26.8125C28.9219 27.3648 28.4742 27.8125 27.9219 27.8125H21.2188C20.6665 27.8125 20.2188 27.3648 20.2188 26.8125Z" fill="black"></path><path fill-rule="evenodd" clip-rule="evenodd" d="M35.3321 0.511643C35.7226 0.902167 35.7226 1.53533 35.3321 1.92586L26.4352 10.8227C24.6245 12.6335 23.9785 15.1893 24.6239 17.6632C24.7633 18.1976 24.4431 18.7438 23.9087 18.8832C23.3743 19.0227 22.828 18.7024 22.6886 18.168C21.8715 15.0357 22.688 11.7415 25.021 9.40852L33.9179 0.511643C34.3084 0.121119 34.9416 0.121119 35.3321 0.511643Z" fill="black"></path><path fill-rule="evenodd" clip-rule="evenodd" d="M20.5199 0.364551C20.9917 0.65171 21.1414 1.26694 20.8542 1.7387L19.1518 4.53556C17.8131 6.80747 15.5483 8.67652 12.9886 9.48483C12.462 9.65114 11.9002 9.35903 11.7339 8.83238C11.5676 8.30573 11.8597 7.74398 12.3864 7.57767C14.4554 6.92427 16.3325 5.38369 17.4318 3.51486L17.4395 3.50193L19.1458 0.698803C19.433 0.227042 20.0482 0.0773928 20.5199 0.364551Z" fill="black"></path></g><defs><clipPath id="clip0_3_129"><rect width="39" height="39" fill="white" transform="translate(0.5)"></rect></clipPath></defs></svg>