<svg xmlns="http://www.w3.org/2000/svg" width="41" height="41" viewBox="0 0 41 41" fill="none"><path fill-rule="evenodd" clip-rule="evenodd" d="M6.6875 26.9062C6.6875 19.3071 12.9008 13.0938 20.5 13.0938C28.0992 13.0938 34.3125 19.3071 34.3125 26.9062C34.3125 31.4653 32.1011 35.471 28.7875 37.9562C28.6144 38.0861 28.4039 38.1562 28.1875 38.1562H12.8125C12.5961 38.1562 12.3856 38.0861 12.2125 37.9562C8.89889 35.471 6.6875 31.4653 6.6875 26.9062ZM20.5 15.0938C14.0054 15.0938 8.6875 20.4117 8.6875 26.9062C8.6875 30.6836 10.4617 34.0177 13.1534 36.1562H27.8466C30.5383 34.0177 32.3125 30.6836 32.3125 26.9062C32.3125 20.4117 26.9946 15.0938 20.5 15.0938Z" fill="black"></path><path fill-rule="evenodd" clip-rule="evenodd" d="M20.5 4.84375C16.0647 4.84375 12.5312 8.48672 12.5312 12.8125V17.8094C12.5312 18.3617 12.0835 18.8094 11.5312 18.8094C10.979 18.8094 10.5312 18.3617 10.5312 17.8094V12.8125C10.5312 7.40078 14.9416 2.84375 20.5 2.84375C25.9117 2.84375 30.4688 7.25407 30.4688 12.8125V17.8094C30.4688 18.3617 30.021 18.8094 29.4688 18.8094C28.9165 18.8094 28.4688 18.3617 28.4688 17.8094V12.8125C28.4688 8.37718 24.8258 4.84375 20.5 4.84375Z" fill="black"></path><path fill-rule="evenodd" clip-rule="evenodd" d="M23.8845 19.9631C24.181 19.4972 24.7991 19.3598 25.265 19.6563C26.8841 20.6867 28.1798 22.4238 28.7589 24.3059C28.9213 24.8338 28.6251 25.3934 28.0972 25.5558C27.5693 25.7182 27.0098 25.422 26.8473 24.8941C26.4015 23.4449 25.3909 22.1071 24.1912 21.3437C23.7253 21.0472 23.588 20.4291 23.8845 19.9631Z" fill="black"></path></svg>