<svg xmlns="http://www.w3.org/2000/svg" width="53" height="52" viewBox="0 0 53 52" fill="none"><g clip-path="url(#clip0_3_119)"><path d="M52.5 22.36H48.8153C48.6109 21.2768 47.6609 20.28 46.519 20.28H44.959C44.87 20.28 44.7 19.9503 44.7 19.9602V16.5537C44.7 15.2636 43.6491 14.04 42.359 14.04H38.719C37.4288 14.04 36.38 15.2636 36.38 16.5537V22.36H16.62V16.5537C16.62 15.2636 15.5691 14.04 14.279 14.04H10.639C9.34884 14.04 8.3 15.2636 8.3 16.5537V19.9924C8.3 19.9826 8.12788 20.28 8.03896 20.28H6.47896C5.34848 20.28 4.4026 21.2924 4.18628 22.36H0.5V29.64H4.14416C4.1738 30.9052 5.20704 31.72 6.47896 31.72H8.03896C8.12788 31.72 8.3 31.9098 8.3 31.8999V35.7937C8.3 37.0838 9.34884 37.96 10.639 37.96H14.279C15.5691 37.96 16.62 37.0838 16.62 35.7937V29.64H36.38V35.7937C36.38 37.0838 37.4288 37.96 38.719 37.96H42.359C43.6491 37.96 44.7 37.0838 44.7 35.7937V31.8672C44.7 31.877 44.87 31.72 44.959 31.72H46.519C47.78 31.72 48.8038 30.8896 48.8501 29.64H52.5V22.36ZM2.58 24.44H4.14V27.56H2.58V24.44ZM8.3 29.38C8.3 29.5235 8.18352 29.64 8.04 29.64H6.48C6.33648 29.64 6.22 29.5235 6.22 29.38V22.62C6.22 22.4765 6.33648 22.36 6.48 22.36H8.04C8.18352 22.36 8.3 22.4765 8.3 22.62V29.38ZM14.54 35.7937C14.54 35.9346 14.4199 35.88 14.279 35.88H10.639C10.498 35.88 10.38 35.9346 10.38 35.7937V29.5859V22.8259V16.5537C10.38 16.4128 10.498 16.12 10.639 16.12H14.279C14.4199 16.12 14.54 16.4128 14.54 16.5537V35.7937ZM16.62 27.56V24.44H36.38V27.56H16.62ZM42.62 35.7937C42.62 35.9346 42.4999 35.88 42.359 35.88H38.719C38.578 35.88 38.46 35.9346 38.46 35.7937V16.5537C38.46 16.4128 38.578 16.12 38.719 16.12H42.359C42.4999 16.12 42.62 16.4128 42.62 16.5537V22.7937V29.5537V35.7937ZM46.78 29.38C46.78 29.5235 46.6635 29.64 46.52 29.64H44.96C44.8165 29.64 44.7 29.5235 44.7 29.38V22.62C44.7 22.4765 44.8165 22.36 44.96 22.36H46.52C46.6635 22.36 46.78 22.4765 46.78 22.62V29.38ZM50.42 27.56H48.86V24.44H50.42V27.56Z" fill="#231F20"></path></g><defs><clipPath id="clip0_3_119"><rect width="52" height="52" fill="white" transform="translate(0.5)"></rect></clipPath></defs></svg>